HIERARCHY
ROOT Hips
{
    OFFSET 0.000000 0.000000 0.000000
    CHANNELS 6 Xposition Yposition Zposition Zrotation Xrotation Yrotation
    JOINT Spine
    {
        OFFSET -0.000000 14.517291 0.000000
        CHANNELS 3 Zrotation Xrotation Yrotation
        JOINT Spine1
        {
            OFFSET -0.000000 37.558300 0.000000
            CHANNELS 3 Zrotation Xrotation Yrotation
            JOINT Neck
            {
                OFFSET -0.000000 37.404057 3.400369
                CHANNELS 3 Zrotation Xrotation Yrotation
                JOINT Head
                {
                    OFFSET -0.000000 24.785618 -3.540803
                    CHANNELS 3 Zrotation Xrotation Yrotation
                    End Site
                    {
                        OFFSET -0.000000 35.408028 0.000000
                    }
                }
            }
            JOINT LeftShoulder
            {
                OFFSET 6.992933 33.973492 -0.192664
                CHANNELS 3 Zrotation Xrotation Yrotation
                JOINT LeftArm
                {
                    OFFSET 21.527611 0.000000 0.000000
                    CHANNELS 3 Zrotation Xrotation Yrotation
                    JOINT LeftForeArm
                    {
                        OFFSET 56.353916 0.000000 0.000000
                        CHANNELS 3 Zrotation Xrotation Yrotation
                        JOINT LeftHand
                        {
                            OFFSET 47.774071 0.000000 0.000000
                            CHANNELS 3 Zrotation Xrotation Yrotation
                            End Site
                            {
                                OFFSET 26.556021 0.000000 0.000000
                            }
                        }
                    }
                }
            }
            JOINT RightShoulder
            {
                OFFSET -7.065357 33.973492 -0.192664
                CHANNELS 3 Zrotation Xrotation Yrotation
                JOINT RightArm
                {
                    OFFSET -21.527611 0.000000 0.000000
                    CHANNELS 3 Zrotation Xrotation Yrotation
                    JOINT RightForeArm
                    {
                        OFFSET -56.353916 0.000000 0.000000
                        CHANNELS 3 Zrotation Xrotation Yrotation
                        JOINT RightHand
                        {
                            OFFSET -47.774071 0.000000 0.000000
                            CHANNELS 3 Zrotation Xrotation Yrotation
                            End Site
                            {
                                OFFSET -26.556021 0.000000 0.000000
                            }
                        }
                    }
                }
            }
        }
    }
    JOINT LeftUpLeg
    {
        OFFSET 17.704014 0.000000 0.000000
        CHANNELS 3 Zrotation Xrotation Yrotation
        JOINT LeftLeg
        {
            OFFSET -0.000000 -81.181816 0.000000
            CHANNELS 3 Zrotation Xrotation Yrotation
            JOINT LeftFoot
            {
                OFFSET -0.000000 -62.821102 0.000000
                CHANNELS 3 Zrotation Xrotation Yrotation
                JOINT LeftToeBase
                {
                    OFFSET -0.000000 -11.507608 26.556021
                    CHANNELS 3 Zrotation Xrotation Yrotation
                    End Site
                    {
                        OFFSET -0.000000 0.000000 7.081605
                    }
                }
            }
        }
    }
    JOINT RightUpLeg
    {
        OFFSET -17.704014 0.000000 0.000000
        CHANNELS 3 Zrotation Xrotation Yrotation
        JOINT RightLeg
        {
            OFFSET -0.000000 -81.181816 0.000000
            CHANNELS 3 Zrotation Xrotation Yrotation
            JOINT RightFoot
            {
                OFFSET -0.000000 -62.821102 0.000000
                CHANNELS 3 Zrotation Xrotation Yrotation
                JOINT RightToeBase
                {
                    OFFSET -0.000000 -11.507608 26.556021
                    CHANNELS 3 Zrotation Xrotation Yrotation
                    End Site
                    {
                        OFFSET -0.000000 0.000000 7.081605
                    }
                }
            }
        }
    }
}
MOTION
Frames:    11
Frame Time:    0.008333
16.276489    156.567032    -75.162949    -1.873639    -3.622483    -33.194477    3.258094    0.773287    2.060319    -4.288341    0.418418    0.708426    14.582796    3.009484    13.872901    -6.544143    3.833312    11.953911    0.199070    10.106695    -12.958248    -36.463402    12.181861    -37.344772    32.603504    -43.318367    -45.088158    -19.968754    -27.044228    -33.439053    -6.040227    3.420941    -1.572498    35.221451    11.723740    78.048622    4.532166    -10.871168    85.429749    6.558601    -13.921817    18.425005    17.270636    -14.156253    2.398688    -11.700949    19.404287    -11.466808    -7.568762    -3.848898    39.565006    0.000000    0.000000    0.000000    -12.984810    7.098304    -3.680342    3.916260    20.490751    -1.242772    7.926872    -20.839657    -5.754325    0.000000    0.000000    0.000000    
16.334490    156.588501    -75.201546    -1.767686    -3.643020    -33.194679    3.348990    0.796706    2.021076    -4.297931    0.376504    0.694331    14.640067    3.031755    13.917297    -6.727700    3.893160    11.979989    0.215069    10.179823    -12.949501    -36.455135    12.090034    -37.398090    32.663429    -43.282288    -44.968906    -19.994244    -27.004164    -33.447563    -6.049916    3.379332    -1.545233    35.190384    11.675175    78.108559    4.581019    -10.795301    85.271553    6.657089    -13.862737    18.443535    17.146088    -14.159336    2.408181    -11.664629    19.272560    -11.442026    -7.648644    -3.745060    39.571503    0.000000    0.000000    0.000000    -13.087768    7.029530    -3.695658    3.893167    20.499493    -1.238191    7.959646    -20.851637    -5.744907    0.000000    0.000000    0.000000    
16.385328    156.606323    -75.240250    -1.672539    -3.658499    -33.204014    3.427892    0.814658    1.997765    -4.270262    0.351088    0.685889    14.717229    3.053732    13.975170    -6.973541    3.946069    12.010839    0.223848    10.225886    -13.008196    -36.473938    11.979090    -37.375439    32.706749    -43.259991    -44.880791    -19.994608    -26.979849    -33.486225    -6.083603    3.360171    -1.579741    35.085098    11.658835    78.244026    4.617393    -10.811186    85.115189    6.694120    -13.891983    18.473366    17.042339    -14.158930    2.418124    -11.639608    19.147373    -11.416934    -7.695903    -3.634402    39.569424    0.000000    0.000000    0.000000    -13.178960    6.963566    -3.727460    3.867661    20.506824    -1.215490    7.955420    -20.861366    -5.722816    0.000000    0.000000    0.000000    
16.476982    156.619110    -75.290405    -1.546064    -3.649726    -33.229179    3.571913    0.831904    1.970581    -4.342133    0.296422    0.675606    14.723133    3.062804    14.008655    -7.102753    3.985190    12.034998    0.198232    10.235046    -13.024874    -36.411316    11.974959    -37.338009    32.856552    -43.286098    -44.696861    -20.072954    -26.980137    -33.524605    -6.091745    3.371720    -1.557128    34.993530    11.577341    78.373436    4.682177    -10.787864    84.970146    6.826340    -13.891829    18.527266    16.914869    -14.209915    2.440919    -11.605616    19.037792    -11.368605    -7.746394    -3.525572    39.567158    0.000000    0.000000    0.000000    -13.307955    6.898994    -3.750342    3.872170    20.396523    -1.201645    7.951512    -20.868441    -5.691442    0.000000    0.000000    0.000000    
16.531595    156.638397    -75.329033    -1.446940    -3.657146    -33.246876    3.700191    0.831817    1.938762    -4.391960    0.290824    0.665171    14.793783    3.059087    14.077779    -7.300313    4.058549    12.081749    0.216257    10.246371    -13.068801    -36.395786    11.931493    -37.279678    32.973625    -43.287991    -44.503731    -20.156851    -26.951534    -33.643593    -6.151288    3.288979    -1.536827    35.007141    11.579352    78.447525    4.729528    -10.729195    84.808105    6.884156    -13.854116    18.543289    16.812956    -14.225812    2.458779    -11.577893    18.936420    -11.341269    -7.808436    -3.422731    39.560944    0.000000    0.000000    0.000000    -13.409411    6.819514    -3.780311    3.866629    20.404776    -1.215904    7.972331    -20.868603    -5.634397    0.000000    0.000000    0.000000    
16.584440    156.657059    -75.370476    -1.347903    -3.659077    -33.267365    3.794353    0.829884    1.915508    -4.390092    0.272495    0.657038    14.836835    3.057921    14.121600    -7.472610    4.141676    12.109385    0.221571    10.278856    -13.098176    -36.420063    11.812520    -37.261337    32.995651    -43.260025    -44.449242    -20.100157    -26.943666    -33.629646    -6.176160    3.230084    -1.525350    34.875458    11.585655    78.539970    4.727835    -10.778849    84.668106    6.987714    -13.871465    18.600777    16.711527    -14.249813    2.509668    -11.532105    18.844852    -11.326284    -7.847989    -3.307947    39.546520    0.000000    0.000000    0.000000    -13.505900    6.732457    -3.818177    3.853559    20.416374    -1.176177    7.977839    -20.876751    -5.628717    0.000000    0.000000    0.000000    
16.628092    156.672699    -75.406601    -1.264203    -3.672270    -33.287701    3.886563    0.835761    1.901907    -4.380701    0.268689    0.652608    14.865124    3.052798    14.179273    -7.620662    4.217088    12.155012    0.204653    10.286013    -13.151150    -36.405445    11.774597    -37.213722    33.108501    -43.252956    -44.283463    -20.104105    -26.929558    -33.692997    -6.188352    3.278769    -1.523664    34.776478    11.465306    78.679680    4.777784    -10.743469    84.538605    7.066566    -13.854219    18.669849    16.619678    -14.248363    2.559468    -11.495215    18.746988    -11.329315    -7.878757    -3.207585    39.536575    0.000000    0.000000    0.000000    -13.597717    6.670512    -3.868166    3.841050    20.425642    -1.151112    7.978839    -20.885538    -5.573525    0.000000    0.000000    0.000000    
16.671186    156.686096    -75.442490    -1.177044    -3.679152    -33.321880    3.998661    0.828084    1.880910    -4.403188    0.276154    0.646210    14.909263    3.056556    14.233858    -7.802221    4.270734    12.191926    0.198783    10.301120    -13.169624    -36.374725    11.729458    -37.187107    33.194191    -43.257481    -44.126293    -20.068537    -26.962423    -33.679302    -6.245688    3.233704    -1.484113    34.740501    11.429423    78.751472    4.787400    -10.710094    84.409523    7.175330    -13.799042    18.727283    16.529325    -14.251591    2.626462    -11.449956    18.653698    -11.330070    -7.926627    -3.115088    39.534214    0.000000    0.000000    0.000000    -13.685691    6.585394    -3.920115    3.811483    20.456003    -1.118385    8.005007    -20.892580    -5.516715    0.000000    0.000000    0.000000    
16.710293    156.697784    -75.481255    -1.094882    -3.680665    -33.356564    4.124290    0.818665    1.857567    -4.461896    0.285916    0.639108    14.983259    3.075974    14.292297    -7.983945    4.300626    12.229787    0.226468    10.323920    -13.182278    -36.359394    11.652167    -37.171703    33.351936    -43.181137    -43.865307    -20.219156    -26.821804    -33.819454    -6.256422    3.184165    -1.456905    34.679577    11.393776    78.840195    4.820700    -10.673985    84.278564    7.230534    -13.769567    18.797836    16.445194    -14.253015    2.699803    -11.393757    18.558798    -11.350078    -7.969289    -3.034085    39.526127    0.000000    0.000000    0.000000    -13.770432    6.499074    -3.957946    3.805501    20.485687    -1.103798    8.009281    -20.906708    -5.465689    0.000000    0.000000    0.000000    
16.745962    156.708176    -75.524948    -1.015186    -3.676146    -33.399143    4.215963    0.809124    1.851806    -4.448766    0.296202    0.637672    15.015637    3.069903    14.339190    -8.164845    4.363532    12.259858    0.232503    10.364355    -13.220788    -36.328442    11.643205    -37.152443    33.482964    -43.273327    -43.723625    -20.093983    -26.967892    -33.788464    -6.295523    3.159256    -1.463013    34.618984    11.332620    78.969208    4.870683    -10.621868    84.145676    7.335082    -13.731540    18.859869    16.375441    -14.259652    2.757985    -11.360204    18.459911    -11.308044    -8.005059    -2.937740    39.500484    0.000000    0.000000    0.000000    -13.845876    6.393906    -3.984817    3.786782    20.539448    -1.051124    8.017056    -20.922079    -5.455556    0.000000    0.000000    0.000000    
16.776936    156.717041    -75.569466    -0.941894    -3.668581    -33.442123    4.288962    0.796756    1.849198    -4.406249    0.310171    0.637369    15.061715    3.072507    14.385059    -8.362773    4.418016    12.286179    0.222910    10.403507    -13.239262    -36.287422    11.639662    -37.166897    33.677376    -43.299023    -43.454582    -20.108234    -26.992861    -33.851780    -6.343686    3.089982    -1.466581    34.560379    11.313601    79.060738    4.887182    -10.582148    84.009308    7.451451    -13.673171    18.932922    16.314453    -14.270068    2.820231    -11.323314    18.381195    -11.300967    -8.043868    -2.867317    39.494667    0.000000    0.000000    0.000000    -13.913712    6.291322    -3.992480    3.780863    20.588028    -1.042016    8.031819    -20.939724    -5.420914    0.000000    0.000000    0.000000    
